<?xml version="1.0" encoding="UTF-8" standalone="no"?>
<!DOCTYPE svg PUBLIC "-//W3C//DTD SVG 1.1//EN" "http://www.w3.org/Graphics/SVG/1.1/DTD/svg11.dtd">
<!-- Created with Vectornator (http://vectornator.io/) -->
<svg height="100%" stroke-miterlimit="10" style="fill-rule:nonzero;clip-rule:evenodd;stroke-linecap:round;stroke-linejoin:round;" version="1.1" viewBox="0 0 32 48" width="100%" xml:space="preserve" xmlns="http://www.w3.org/2000/svg" xmlns:vectornator="http://vectornator.io" xmlns:xlink="http://www.w3.org/1999/xlink">
<defs/>
<g id="Layer-1" vectornator:layerName="Layer 1">
<path d="M0 25.3726C-3.55271e-15 16.536 7.16344 9.37258 16 9.37258C24.8366 9.37258 32 16.536 32 25.3726C32 34.2091 24.8366 41.3726 16 41.3726C7.16344 41.3726-3.55271e-15 34.2091 0 25.3726Z" fill="#effce8" fill-rule="nonzero" opacity="1" stroke="none" vectornator:layerName="Oval 1"/>
<path d="M4.68629 36.6863L16 25.3726L27.3137 36.6863L16 48L4.68629 36.6863Z" fill="#effce8" fill-rule="nonzero" opacity="1" stroke="none" vectornator:layerName="Rectangle 1"/>
<path d="M6 25.3726C6 19.8497 10.4772 15.3726 16 15.3726C21.5228 15.3726 26 19.8497 26 25.3726C26 30.8954 21.5228 35.3726 16 35.3726C10.4772 35.3726 6 30.8954 6 25.3726Z" fill="#98fc5d" fill-rule="nonzero" opacity="1" stroke="none" vectornator:layerName="Oval 2"/>
<path d="M10.4008 29.5982L12.5902 31.0661C12.8177 31.2192 13.1175 31.2394 13.361 31.1164L15.6381 29.966C15.8858 29.8409 16.0454 29.594 16.0549 29.3157L16.1724 26.6824C16.182 26.4148 16.0547 26.1627 15.8336 26.0117L13.6441 24.5438C13.4166 24.3906 13.1168 24.3704 12.8733 24.4934L10.5963 25.6438C10.3485 25.769 10.189 26.0158 10.1794 26.2941L10.0619 28.9275C10.0523 29.1951 10.1797 29.4471 10.4008 29.5982ZM20.3607 26.1123C20.6283 26.1219 20.8803 25.9945 21.0314 25.7734L22.4993 23.584C22.6524 23.3565 22.6726 23.0567 22.5496 22.8132L21.3992 20.5362C21.274 20.2884 21.0272 20.1289 20.7489 20.1193L18.1156 20.0018C17.848 19.9922 17.5959 20.1195 17.4448 20.3406L15.977 22.5301C15.8238 22.7576 15.8036 23.0574 15.9266 23.3009L17.077 25.5779C17.2022 25.8257 17.449 25.9852 17.7273 25.9948L20.3607 26.1123ZM13.2309 20.6449C12.8495 19.8899 11.9282 19.5871 11.1732 19.9685C10.4182 20.3499 10.1153 21.2712 10.4967 22.0262C10.8782 22.7812 11.7995 23.0841 12.5545 22.7027C13.3095 22.3212 13.6123 21.4 13.2309 20.6449ZM19.9318 31.2288C20.6868 30.8474 20.9897 29.9261 20.6082 29.1711C20.2268 28.4161 19.3055 28.1132 18.5505 28.4947C17.7955 28.8761 17.4927 29.7974 17.8741 30.5524C18.2555 31.3074 19.1768 31.6103 19.9318 31.2288Z" fill="#ffffff" fill-rule="nonzero" opacity="1" stroke="none" vectornator:layerName="Curve 1"/>
</g>
</svg>
