<?xml version="1.0" encoding="UTF-8" standalone="no"?>
<!DOCTYPE svg PUBLIC "-//W3C//DTD SVG 1.1//EN" "http://www.w3.org/Graphics/SVG/1.1/DTD/svg11.dtd">
<!-- Created with Vectornator (http://vectornator.io/) -->
<svg height="100%" stroke-miterlimit="10" style="fill-rule:nonzero;clip-rule:evenodd;stroke-linecap:round;stroke-linejoin:round;" version="1.1" viewBox="0 0 32 48" width="100%" xml:space="preserve" xmlns="http://www.w3.org/2000/svg" xmlns:vectornator="http://vectornator.io" xmlns:xlink="http://www.w3.org/1999/xlink">
<defs/>
<g id="Layer-1" vectornator:layerName="Layer 1">
<path d="M0 25.3726C-3.55271e-15 16.536 7.16344 9.37258 16 9.37258C24.8366 9.37258 32 16.536 32 25.3726C32 34.2091 24.8366 41.3726 16 41.3726C7.16344 41.3726-3.55271e-15 34.2091 0 25.3726Z" fill="#e8f0fc" fill-rule="nonzero" opacity="1" stroke="none" vectornator:layerName="Oval 1"/>
<path d="M4.68629 36.6863L16 25.3726L27.3137 36.6863L16 48L4.68629 36.6863Z" fill="#e8f0fc" fill-rule="nonzero" opacity="1" stroke="none" vectornator:layerName="Rectangle 1"/>
<path d="M6 25.3726C6 19.8497 10.4772 15.3726 16 15.3726C21.5228 15.3726 26 19.8497 26 25.3726C26 30.8954 21.5228 35.3726 16 35.3726C10.4772 35.3726 6 30.8954 6 25.3726Z" fill="#5d9afc" fill-rule="nonzero" opacity="1" stroke="none" vectornator:layerName="Oval 2"/>
<path d="M16.875 19.2476C16.875 19.7316 17.266 20.1226 17.75 20.1226L18.625 20.1226C19.109 20.1226 19.5 20.5136 19.5 20.9976C19.5 21.4816 19.109 21.8726 18.625 21.8726L9.875 21.8726C9.39102 21.8726 9 22.2636 9 22.7476C9 23.2316 9.39102 23.6226 9.875 23.6226L18.625 23.6226C20.0742 23.6226 21.25 22.4468 21.25 20.9976C21.25 19.5484 20.0742 18.3726 18.625 18.3726L17.75 18.3726C17.266 18.3726 16.875 18.7636 16.875 19.2476ZM18.625 28.8726C18.625 29.3566 19.016 29.7476 19.5 29.7476L20.375 29.7476C21.8242 29.7476 23 28.5718 23 27.1226C23 25.6734 21.8242 24.4976 20.375 24.4976L9.875 24.4976C9.39102 24.4976 9 24.8886 9 25.3726C9 25.8566 9.39102 26.2476 9.875 26.2476L20.375 26.2476C20.859 26.2476 21.25 26.6386 21.25 27.1226C21.25 27.6066 20.859 27.9976 20.375 27.9976L19.5 27.9976C19.016 27.9976 18.625 28.3886 18.625 28.8726ZM12.5 32.3726L13.375 32.3726C14.8242 32.3726 16 31.1968 16 29.7476C16 28.2984 14.8242 27.1226 13.375 27.1226L9.875 27.1226C9.39102 27.1226 9 27.5136 9 27.9976C9 28.4816 9.39102 28.8726 9.875 28.8726L13.375 28.8726C13.859 28.8726 14.25 29.2636 14.25 29.7476C14.25 30.2316 13.859 30.6226 13.375 30.6226L12.5 30.6226C12.016 30.6226 11.625 31.0136 11.625 31.4976C11.625 31.9816 12.016 32.3726 12.5 32.3726Z" fill="#ffffff" fill-rule="nonzero" opacity="1" stroke="none" vectornator:layerName="path 1"/>
</g>
</svg>
